<svg width="35" height="34" viewBox="0 0 35 34" fill="none" xmlns="http://www.w3.org/2000/svg">
<path d="M20.6785 16.6064C20.6785 18.3619 19.2554 19.7849 17.4999 19.7849C15.7444 19.7849 14.3214 18.3619 14.3214 16.6064C14.3214 14.8509 15.7444 13.4278 17.4999 13.4278C19.2554 13.4278 20.6785 14.8509 20.6785 16.6064Z" fill="#303030"/>
<path d="M24.9336 10.9824C24.7808 10.5684 24.537 10.1936 24.2203 9.88597C23.9126 9.56923 23.5381 9.32547 23.1238 9.17267C22.7878 9.04217 22.2831 8.88684 21.3534 8.84453C20.3477 8.79866 20.0461 8.78878 17.5 8.78878C14.9537 8.78878 14.6521 8.79841 13.6467 8.84427C12.717 8.88684 12.212 9.04217 11.8762 9.17267C11.4619 9.32547 11.0871 9.56923 10.7798 9.88597C10.463 10.1936 10.2193 10.5681 10.0662 10.9824C9.93573 11.3184 9.7804 11.8234 9.73808 12.7531C9.69222 13.7586 9.68233 14.0601 9.68233 16.6065C9.68233 19.1526 9.69222 19.4541 9.73808 20.4598C9.7804 21.3895 9.93573 21.8943 10.0662 22.2303C10.2193 22.6446 10.4628 23.0191 10.7795 23.3267C11.0871 23.6435 11.4617 23.8872 11.876 24.04C12.212 24.1708 12.717 24.3261 13.6467 24.3684C14.6521 24.4143 14.9534 24.4239 17.4998 24.4239C20.0464 24.4239 20.3479 24.4143 21.3531 24.3684C22.2828 24.3261 22.7878 24.1708 23.1238 24.04C23.9555 23.7192 24.6128 23.0619 24.9336 22.2303C25.0641 21.8943 25.2194 21.3895 25.262 20.4598C25.3078 19.4541 25.3175 19.1526 25.3175 16.6065C25.3175 14.0601 25.3078 13.7586 25.262 12.7531C25.2197 11.8234 25.0643 11.3184 24.9336 10.9824ZM17.5 21.5028C14.7956 21.5028 12.6032 19.3107 12.6032 16.6062C12.6032 13.9017 14.7956 11.7096 17.5 11.7096C20.2042 11.7096 22.3966 13.9017 22.3966 16.6062C22.3966 19.3107 20.2042 21.5028 17.5 21.5028ZM22.5902 12.6604C21.9582 12.6604 21.4459 12.148 21.4459 11.5161C21.4459 10.8841 21.9582 10.3717 22.5902 10.3717C23.2222 10.3717 23.7345 10.8841 23.7345 11.5161C23.7343 12.148 23.2222 12.6604 22.5902 12.6604Z" fill="#303030"/>
<path d="M17.4999 0C8.32989 0 0.893555 7.43633 0.893555 16.6064C0.893555 25.7764 8.32989 33.2128 17.4999 33.2128C26.67 33.2128 34.1063 25.7764 34.1063 16.6064C34.1063 7.43633 26.67 0 17.4999 0ZM26.9781 20.5378C26.932 21.5529 26.7706 22.2459 26.5349 22.8525C26.0395 24.1334 25.027 25.146 23.7461 25.6414C23.1397 25.877 22.4464 26.0382 21.4316 26.0846C20.4147 26.1309 20.0899 26.1421 17.5002 26.1421C14.9103 26.1421 14.5857 26.1309 13.5685 26.0846C12.5537 26.0382 11.8604 25.877 11.254 25.6414C10.6175 25.4019 10.0413 25.0266 9.56493 24.5414C9.07993 24.0653 8.70466 23.4888 8.4652 22.8525C8.22954 22.2462 8.06813 21.5529 8.02201 20.538C7.97514 19.5209 7.96424 19.1961 7.96424 16.6064C7.96424 14.0167 7.97514 13.6919 8.02176 12.675C8.06788 11.6599 8.22904 10.9669 8.46469 10.3602C8.70415 9.72397 9.07968 9.1475 9.56493 8.67137C10.0411 8.18612 10.6175 7.81085 11.2538 7.57139C11.8604 7.33574 12.5534 7.17458 13.5685 7.12821C14.5854 7.08184 14.9103 7.07069 17.4999 7.07069C20.0896 7.07069 20.4145 7.08184 21.4313 7.12846C22.4464 7.17458 23.1395 7.33574 23.7461 7.57114C24.3824 7.8106 24.9588 8.18612 25.4352 8.67137C25.9202 9.14775 26.2957 9.72397 26.5349 10.3602C26.7708 10.9669 26.932 11.6599 26.9784 12.675C27.0247 13.6919 27.0356 14.0167 27.0356 16.6064C27.0356 19.1961 27.0247 19.5209 26.9781 20.5378Z" fill="#303030"/>
</svg>
