<svg width="34" height="34" viewBox="0 0 34 34" fill="none" xmlns="http://www.w3.org/2000/svg">
<path d="M17.0532 0C7.88311 0 0.446777 7.43633 0.446777 16.6064C0.446777 25.7764 7.88311 33.2128 17.0532 33.2128C26.2232 33.2128 33.6595 25.7764 33.6595 16.6064C33.6595 7.43633 26.2232 0 17.0532 0ZM24.6354 12.9479C24.6428 13.1113 24.6463 13.2755 24.6463 13.4405C24.6463 18.4772 20.8125 24.2852 13.8014 24.2855C11.6488 24.2855 9.64571 23.6545 7.95887 22.5733C8.25712 22.6085 8.56068 22.626 8.86805 22.626C10.654 22.626 12.2975 22.0168 13.6022 20.9944C11.9336 20.9635 10.5268 19.8615 10.0413 18.3469C10.2736 18.3915 10.5126 18.4159 10.7576 18.4159C11.1055 18.4159 11.4425 18.369 11.7628 18.2816C10.0187 17.9324 8.70486 16.391 8.70486 14.5453C8.70486 14.5281 8.70486 14.5126 8.70537 14.4966C9.219 14.7822 9.80637 14.954 10.4317 14.9733C9.40828 14.2904 8.73553 13.123 8.73553 11.8005C8.73553 11.1022 8.9243 10.4479 9.25169 9.88462C11.1314 12.191 13.9405 13.7078 17.1084 13.8672C17.043 13.588 17.0093 13.2971 17.0093 12.9981C17.0093 10.8939 18.7164 9.18677 20.8214 9.18677C21.9178 9.18677 22.9081 9.65023 23.6036 10.3912C24.472 10.2199 25.2874 9.90261 26.024 9.46601C25.739 10.3557 25.1349 11.1022 24.3478 11.5742C25.1189 11.482 25.8538 11.2775 26.5367 10.974C26.0266 11.7384 25.3797 12.4099 24.6354 12.9479Z" fill="#303030"/>
</svg>
