<svg width="34" height="34" viewBox="0 0 34 34" fill="none" xmlns="http://www.w3.org/2000/svg">
<path d="M33.5531 16.6064C33.5531 7.43633 26.1168 0 16.9467 0C7.77666 0 0.340332 7.43633 0.340332 16.6064C0.340332 25.7764 7.77666 33.2128 16.9467 33.2128C17.0443 33.2128 17.1413 33.2107 17.2386 33.209V20.2816H13.6708V16.1237H17.2386V13.0639C17.2386 9.51542 19.4049 7.58406 22.5703 7.58406C24.0861 7.58406 25.389 7.69707 25.7689 7.7475V11.4562H23.5861C21.8641 11.4562 21.5306 12.2746 21.5306 13.4755V16.1237H25.6482L25.1116 20.2816H21.5306V32.5712C28.4718 30.5813 33.5531 24.1864 33.5531 16.6064Z" fill="#303030"/>
</svg>
